PathFileType	4	(X/Y/Z)	Walk1_0-155.trc
DataRate	CameraRate	NumFrames	NumMarkers	Units	OrigDataRate	OrigDataStartFrame	OrigNumFrames
30	30	4	22	m	30	0	155
Frame#	Time	Hip			RHip			RKnee			RAnkle			RBigToe			RSmallToe			RHeel			LHip			LKnee			LAnkle			LBigToe			LSmallToe			LHeel			Neck			Head			Nose			RShoulder			RElbow			RWrist			LShoulder			LElbow			LWrist		
		X1	Y1	Z1	X2	Y2	Z2	X3	Y3	Z3	X4	Y4	Z4	X5	Y5	Z5	X6	Y6	Z6	X7	Y7	Z7	X8	Y8	Z8	X9	Y9	Z9	X10	Y10	Z10	X11	Y11	Z11	X12	Y12	Z12	X13	Y13	Z13	X14	Y14	Z14	X15	Y15	Z15	X16	Y16	Z16	X17	Y17	Z17	X18	Y18	Z18	X19	Y19	Z19	X20	Y20	Z20	X21	Y21	Z21	X22	Y22	Z22
1	0.0333333333333333	-2.5823761683049984	0.8353400392952264	0.39029151368501164	-2.563516072494904	0.7994394705354068	0.47210256865260175	-2.597407311536532	0.452086785688823	0.502259933692643	-2.633257487294815	0.07006546755633587	0.5125605760713765	-2.4392182492526073	-0.017497692798155672	0.5466326445270868	-2.4487578236811456	-0.02051030650599716	0.6099584212003207	-2.607615954525448	0.0017932125334778697	0.507152895786071	-2.5768075260117285	0.8021439463525126	0.3032093218417493	-2.554761133141693	0.4584460066725465	0.28593547380128603	-2.57354235437714	0.07892255315398722	0.2781757199738604	-2.3863614470156684	-0.003915789494992154	0.2708504654651596	-2.4267381191287307	-0.011182639421838893	0.21155772741342627	-2.618271495595684	-0.017091943486082926	0.2967970721452926	-2.538722907660852	1.5037001661217229	0.3921479391910613	-2.542471406229842	1.7826537629689339	0.37664324841097163	-2.4136410012535654	1.654361319083335	0.39915975249637187	-2.567510528944783	1.3823827233286352	0.5758649934626723	-2.5677965765837665	1.0987501438380687	0.6251683980628433	-2.4906525966702797	0.8540343194208354	0.6098131702547679	-2.5705095574764827	1.3989693780786845	0.20640842011989877	-2.5465778884403076	1.0950878518384501	0.1526150023553946	-2.488123356785188	0.8501379330874923	0.16866360527994145
2	0.0666666666666666	-2.5821866488508207	0.8347294224140425	0.3884674684582054	-2.5627042574305814	0.799688869555533	0.473780133204878	-2.5985248666106697	0.44993408164714505	0.5030731352687094	-2.6206449101062383	0.07333969830424586	0.5125345244760057	-2.416613356346866	-0.012500028016565908	0.5445494928748034	-2.442331690827392	-0.014796079139847233	0.6079787541160858	-2.609645439719249	0.0038807680805129797	0.5061178608493916	-2.577661138115568	0.8008298963652452	0.3011158543667786	-2.552228547644854	0.45791183529513435	0.28515555432976153	-2.5728728085246053	0.0787604049165333	0.2792484206964288	-2.384995900478543	-0.004407328760768046	0.27133282338962145	-2.4274135929539558	-0.011921229100006038	0.21031075040367408	-2.618255590590273	-0.016057554621450927	0.2968681837387473	-2.5375678378859594	1.5026456429369035	0.3916660145365683	-2.5398497056315046	1.7811144198766924	0.36189288403192704	-2.413418050460833	1.6548492621646134	0.3854687109343184	-2.5654694401167024	1.3829450800712597	0.575552431156343	-2.5655938913341463	1.0976651748746	0.6247369059395891	-2.4895512099204353	0.8541114610902134	0.6097900376563857	-2.5707765138033345	1.39951829792348	0.20423667207786564	-2.545888207646034	1.0951173286519245	0.15131745430331928	-2.4866410870335116	0.851884012257233	0.16743360701976218
3	0.1	-2.5820132578285264	0.8340625178853592	0.386662188306274	-2.5622618772837793	0.7999016724412907	0.4749773440681612	-2.599714044932063	0.448054028286847	0.5036974935506435	-2.6071839535662695	0.0768381143982422	0.5125661291567313	-2.398465953837129	-0.00818317992795675	0.5427865524341698	-2.437139512513344	-0.009879585432409958	0.6063370431142471	-2.6142433875354527	0.004570395277175491	0.5053159415381915	-2.578253740475074	0.7996856224456136	0.2990634671450183	-2.5495927781004912	0.4574939213613272	0.28441604339051113	-2.5723528815956884	0.07848733298933763	0.2801048508133573	-2.3838588956482347	-0.004954533600394451	0.27202491764004666	-2.4279465886185565	-0.012620855450353602	0.20947064780270933	-2.618321850933541	-0.015114994958585785	0.29679530403821414	-2.5363162445920526	1.5016962082965102	0.3909054311681468	-2.5379391542982743	1.780058006724616	0.35211988399864114	-2.4130096710912343	1.655202884977102	0.3732675547094553	-2.564506254612871	1.3838062077741604	0.5738770101528516	-2.563529229431382	1.0967401705940487	0.624100211947432	-2.488528613794693	0.8541035523808967	0.609727238636544	-2.570898067676429	1.3998333319076812	0.20198613362582285	-2.5453262313712264	1.0950178946378497	0.14994685069290886	-2.485314386697011	0.8530539207358541	0.16622214806032262
4	0.1333333333333333	-2.5818172389215945	0.8333583070910041	0.38485983642470684	-2.56228469254536	0.8000753590381796	0.47540324866986045	-2.6008885376290896	0.4466444034610598	0.5040166914450417	-2.5937924725843526	0.08035871135096469	0.5127331807732693	-2.387055390752746	-0.005060360776093101	0.5415403546133275	-2.4341479125307366	-0.006353886869193336	0.6052583154882104	-2.6230309932051648	0.002880732261020055	0.5047889821725678	-2.578441752212048	0.7988333642534395	0.29711519733830405	-2.5468804424132996	0.45724106547138876	0.2837257017742814	-2.572071591952057	0.07804459181687992	0.2805958349780894	-2.3830564923499535	-0.005534351368411808	0.27293141864985354	-2.428239031892425	-0.013150154352350498	0.20922710667617955	-2.6186038908048115	-0.014407541900975412	0.29650736972789543	-2.5349393664327815	1.5009029698125134	0.3897132637633296	-2.5365845414032706	1.779565128421432	0.34661551913604544	-2.4123677538903197	1.6553770866935997	0.36344309281739723	-2.565326665473135	1.385205121229657	0.569716320921497	-2.5616208774405176	1.0960997104759695	0.6231227754543024	-2.487606644783244	0.8540313347418818	0.6095918893728252	-2.570811970350519	1.3997845440163683	0.1995754807460558	-2.5449957040282367	1.0947385615472573	0.1483700776844841	-2.4843078755716244	0.8533657858607577	0.16494088711877916
